<?xml version="1.0" encoding="utf-8"?>
<!-- Generator: Adobe Illustrator 28.3.0, SVG Export Plug-In . SVG Version: 6.00 Build 0)  -->
<svg version="1.1" id="图层_1" xmlns="http://www.w3.org/2000/svg" xmlns:xlink="http://www.w3.org/1999/xlink" x="0px" y="0px"
	 viewBox="0 0 2804.9 1245.9" style="enable-background:new 0 0 2804.9 1245.9;" xml:space="preserve">
<style type="text/css">
	.st0{fill:url(#SVGID_1_);}
	.st1{fill:url(#SVGID_00000173129649242297559850000001207044405211954366_);}
	.st2{fill:url(#SVGID_00000038385648607249501210000009087731529163079356_);}
	.st3{fill:url(#SVGID_00000047049862533269663710000017490901761443561896_);}
	.st4{fill:#424242;stroke:#424242;stroke-width:19;stroke-miterlimit:10;}
	.st5{fill:#4F4F4F;}
	.st6{display:none;fill:#6A6A6A;}
	.st7{display:none;fill:#4F4F4F;}
	.st8{display:none;fill:none;stroke:#79787A;stroke-width:8;stroke-miterlimit:10;}
	.st9{display:none;fill:url(#SVGID_00000038403319926659260370000013839167403700846996_);}
	.st10{fill:url(#SVGID_00000129905012617916962660000006811453258501886900_);}
	.st11{fill:url(#SVGID_00000044136537614184101610000007259982791347325848_);}
	.st12{fill:url(#SVGID_00000018233405536047887440000004256257125432869567_);}
</style>
<g transform="translate(140,98.91485786464824)">
	<g>
		
			<linearGradient id="SVGID_1_" gradientUnits="userSpaceOnUse" x1="-216.3447" y1="1125.743" x2="415.908" y2="1125.743" gradientTransform="matrix(2.0339 0 0 -2.0339 376.604 2813.0457)">
			<stop  offset="0" style="stop-color:#1AE0FF"/>
			<stop  offset="0.48" style="stop-color:#FA10D6"/>
			<stop  offset="0.99" style="stop-color:#FF950E"/>
		</linearGradient>
		<path class="st0" d="M551.4,1082.4c-8.1,0-16.2-1.2-24.1-3.7c-26.1-8.1-46.3-28.6-53.9-54.9c-5.2-19.3-4.5-37.1,2.3-52.9
			c6.9-16.2,19.9-29.9,38.6-40.9c13-6.3,20.8-20.2,19.6-34.6c-0.4-55-0.8-119.9,0-185.3c0-21.4-7.2-29.4-26.7-29.4
			c-0.5,0-1.1,0-1.7,0c-20.7,0.5-41.9,0.7-64.9,0.7c-22.7,0-47-0.2-74.1-0.7c-10.5,0-17.4,2-21.7,6.4c-4.2,4.3-6,10.8-5.8,20.7
			c0.7,36.5,0.7,75.5,0,126.6c-0.4,13.3,5.7,26.1,16.2,34.3c12.9,11.5,20.4,26.2,20.9,41.5c0.5,13.8-4.7,27.1-14.7,37.4
			c-10,10.7-24.1,16.8-38.8,16.8c-13.5,0-26.3-5.1-36.1-14.2c-0.8-0.7-1.6-1.5-2.3-2.3c-10.6-10.5-16-23.3-15.9-37
			c0.2-14.9,7.4-29.8,20.2-42c0.7-0.6,1.3-1.2,2-1.8c7.6-7.1,14.9-13.8,14.5-25.9c-0.6-19.9-0.3-40.2,0-59.8
			c0.6-38,1.2-77.4-5.1-115.8c-9-55.1-31.5-101-66.7-136.3c-14.2-14.4-21.4-26.9-15.8-48.5c9.5-31.2-6-64.3-36-76.9
			c-9-4.3-18.6-6.5-28.5-6.5c-25.2,0-48.5,14.7-59.4,37.4c-9.9,20.5-8.5,44.3,3.6,63.6c12.2,20.5,32.5,32.3,55.5,32.3
			c7.2,0,14.6-1.1,22-3.3c4.8-1.4,9.1-2.1,12.9-2.1c9,0,16.2,3.6,24.9,12.4c32.2,32.2,55,72.6,66,116.8c2.5,9.8,2.1,16.6-1.2,20.9
			c-2.9,3.7-8,5.6-15.5,5.6c-0.4,0-0.8,0-1.2,0c-4.2-0.1-8.5-0.2-13.2-0.2c-11.2,0-22.6,0.3-33.6,0.6c-11,0.3-22.4,0.6-33.6,0.6
			c-26,0-45.9-1.7-64.4-5.6C65,665.8,19,638.4-13.8,599.3c-32.8-39.1-50.4-87.7-49.6-136.8c0.8-50.4,19.3-99.1,52-136.9
			c33.2-38.5,78.3-64,130.4-73.8c22.2-4.2,30.4-12.6,33.8-34.8C164.4,142,198.9,78,252.7,31.8c50.7-43.6,115.5-67.5,182.2-67.5
			c66.7,0,131.4,23.5,187.1,67.9c8.8,8.1,20.2,12.6,32.2,12.6c4.3,0,8.5-0.6,12.6-1.7c18.9-4.4,37.8-6.6,56.4-6.6
			c54,0,104.8,19.1,143.2,53.8c39.5,35.7,64,85,70.9,142.5c1.9,15.8,6,20.9,16.8,20.9c2.7,0,5.9-0.3,10.1-1c12.8-2,25.7-3,38.4-3
			c56.2,0,109.3,19.7,149.5,55.4c40.5,36.1,65.3,86.4,69.7,141.7c4.8,60.3-14.7,117.7-55.1,161.6c-20.9,22.7-46.1,40.6-75,53.2
			c-29.9,13.1-62.3,19.7-96.3,19.9h-92.6c-9.3,0-15.9-2.3-19.4-6.8c-3.6-4.6-4.3-11.4-2.1-20.9c10.6-44.2,33.8-83.4,73-123.5
			c4.2-4.3,8.5-6.3,13.6-6.3c4.2,0,8.4,1.4,12.7,2.8c2.5,0.8,5.1,1.7,7.7,2.2c5,1.1,10.2,1.7,15.3,1.7c31.5,0,59.5-20.9,66.4-49.7
			c4.4-17.2,1.9-35.1-7.1-50.4c-9-15.3-23.5-26.2-40.7-30.6c-5.5-1.4-11.1-2.1-16.6-2.1c-30.3,0-56.8,20.5-64.4,49.9
			c-0.3,1.3-0.6,2.6-0.9,3.9c-1.9,4.8-2.4,10-1.4,15.1c15.3,31.3-1.8,50.6-19.9,71.1c-1.7,1.9-3.4,3.8-5.1,5.8
			c-59.7,68.9-60.7,154.7-56.6,236.6c0.5,9.9,6.7,14.6,13.2,19.6c1.6,1.2,3.2,2.5,4.7,3.8c16.1,13.8,25.3,31.5,25.9,49.9
			c0.6,17.3-6.4,34.1-19.8,47.3c-12.5,12.4-28.3,19.2-44.4,19.2c-17.9,0-35.1-8.2-48.3-23.2c-11.2-12.1-17-27.8-16.4-44.3
			c0.6-16.5,7.7-31.7,19.8-42.9c2.8-2.6,5.8-4.9,9-6.9c18.4-12.8,18.1-28.5,17.9-45.1c0-1.1,0-2.2,0-3.3c-0.1-10.3,0-19.1,0-26.8
			c0.2-23.5,0.3-35.2-5.4-40.9c-4.4-4.4-12.4-5.2-26.4-5.2c-3.5,0-7.3,0-11.7,0.1c-5.4,0.1-11.4,0.1-18.2,0.1c-3,0-6.2,0-9.5-0.1
			c-23.9-0.3-47.3-0.5-70.6-0.5c-19.3,0-36.7,0.2-53,0.5c-1,0-2,0-2.9,0c-11.7,0-18.9-2.1-23.2-6.8c-4.7-5.1-6.1-13.6-4.8-27.5
			c9.3-101.8,40.6-202.3,95.7-307.4c8.1-15.3,17.1-20.8,35.9-21.6c36.9-1.5,62.8-28.9,63-66.6c0-32.7-20.9-59.2-50.8-64.4
			c-4.9-0.9-9.8-1.3-14.6-1.3c-31.2,0-56.1,18.4-65,48.1c-5.5,19.3-1.8,37.8,11.7,58.4c0.4,0.6,0.8,1.2,1.2,1.8
			c5.5,8.2,10.8,15.9,5,26.5c-46.8,88.3-77.2,164.8-95.8,240.7c-17.1-60.6-38.7-120.5-64-178.2c-5.8-12.9,2.4-19.6,10.4-26
			c2.5-2,5-4.1,7-6.2c42.7-46.1,53.6-96.7,32.4-150.5c-20.7-52.9-70.8-87.1-127.6-87.1c-17.1,0-33.9,3.2-50,9.5
			c-52.6,20.6-86.8,70.5-87,127c-0.6,78.9,55.9,137.4,134.5,139.2c0.3,0,0.6,0,1,0c6.5,0,13.3-1.5,19.9-2.9
			c6.6-1.4,12.8-2.8,18.7-2.8c5.8,0,10.5,1.4,14.4,4.2c14.9,10.8,20.7,29.2,26.3,47c1.6,5.2,3.3,10.5,5.2,15.5
			c30.7,79.1,46.5,162.2,46.9,247c0,21.6,0,43.2,0.1,64.8c0.1,42.5,0.2,86.5-0.1,129.7c0,17.2,3.6,29.1,21.8,39.4
			c35.8,20,50.8,56.2,39.1,94.4C618.3,1059.5,587.2,1082.4,551.4,1082.4z"/>
		
			<linearGradient id="SVGID_00000079473218043816489260000009226792103372208520_" gradientUnits="userSpaceOnUse" x1="-216.6463" y1="1125.5221" x2="416.2097" y2="1125.5221" gradientTransform="matrix(2.0339 0 0 -2.0339 376.604 2813.0457)">
			<stop  offset="0" style="stop-color:#1AE0FF"/>
			<stop  offset="0.48" style="stop-color:#FA10D6"/>
			<stop  offset="0.99" style="stop-color:#FF950E"/>
		</linearGradient>
		<path style="fill:url(#SVGID_00000079473218043816489260000009226792103372208520_);" d="M551.4,1083.5c-8.2,0-16.3-1.2-24.2-3.7
			c-26.3-8.2-46.6-28.8-54.3-55.3c-5.3-19.4-4.5-37.3,2.3-53.3c7-16.3,20-30.1,38.9-41.2c12.8-6.2,20.5-19.9,19.3-34
			c-0.4-55-0.8-119.9,0-185.3c0-21-7.1-28.8-26.1-28.8c-0.5,0-1.1,0-1.6,0c-20.7,0.5-42,0.7-64.9,0.7c-22.7,0-47-0.2-74.1-0.7
			c-10.3,0-17.1,2-21.2,6.2c-4,4.1-5.8,10.6-5.6,20.2c0.7,36.5,0.7,75.5,0,126.6c-0.4,13.1,5.6,25.8,16,33.8
			c13.1,11.6,20.6,26.5,21.2,41.9c0.5,14-4.8,27.4-14.9,37.9c-10.1,10.8-24.4,17-39.2,17c-13.6,0-26.6-5.1-36.6-14.4
			c-0.8-0.7-1.6-1.5-2.3-2.3c-10.7-10.6-16.2-23.6-16-37.5c0.2-15.1,7.4-30.1,20.4-42.4c0.7-0.6,1.3-1.2,2-1.8
			c7.5-7,14.7-13.6,14.3-25.5c-0.6-19.9-0.3-40.2,0-59.8c0.6-38,1.2-77.3-5.1-115.7c-9-55-31.4-100.7-66.5-136
			c-14.4-14.5-21.6-27.2-16-49.1c9.4-30.9-5.9-63.7-35.6-76.2c-8.9-4.3-18.4-6.5-28.2-6.5c-25,0-48.1,14.5-58.9,37
			c-9.8,20.3-8.4,43.9,3.6,63c12.1,20.3,32.2,32,55,32c7.1,0,14.5-1.1,21.8-3.3c4.9-1.5,9.2-2.2,13.1-2.2c9.1,0,16.5,3.7,25.3,12.6
			c32.3,32.3,55.2,72.8,66.2,117.1c2.6,10,2.1,17-1.3,21.4c-3,3.9-8.3,5.8-16,5.8c-0.4,0-0.8,0-1.3,0c-4.2-0.1-8.5-0.2-13.2-0.2
			c-11.2,0-22.6,0.3-33.5,0.6c-11,0.3-22.4,0.6-33.6,0.6c-26.1,0-46-1.7-64.5-5.6c-51-10.6-97.1-38.1-130-77.3
			c-32.9-39.2-50.5-88-49.7-137.2c0.8-50.6,19.3-99.3,52.1-137.3c33.3-38.6,78.6-64.2,130.8-74c21.8-4.1,29.9-12.4,33.3-34.3
			C163.8,142.2,198.4,78,252.3,31.8C303.2-11.9,368-35.9,434.9-35.9c66.8,0,131.7,23.5,187.5,68c8.7,8,20,12.4,31.8,12.4
			c4.2,0,8.4-0.6,12.5-1.7c18.9-4.4,38-6.6,56.5-6.6c54.1,0,105.1,19.2,143.6,53.9C906.4,126,931,175.4,938,233.1
			c1.8,15.4,5.8,20.4,16.2,20.4c2.6,0,5.8-0.3,10-1c12.8-2,25.8-3,38.5-3c56.4,0,109.6,19.7,149.9,55.6
			c40.7,36.2,65.5,86.6,69.9,142.1c4.8,60.5-14.8,118-55.2,162c-20.9,22.8-46.2,40.7-75.2,53.3c-30,13.1-62.5,19.8-96.5,20h-92.6
			c-9.5,0-16.2-2.4-19.9-7c-3.8-4.8-4.5-11.8-2.2-21.4c10.7-44.3,33.9-83.6,73.2-123.8c4.3-4.4,8.8-6.4,14.1-6.4
			c4.3,0,8.5,1.4,12.9,2.8c2.5,0.8,5.1,1.7,7.7,2.2c5,1.1,10.1,1.6,15.2,1.6c31.2,0,58.9-20.7,65.9-49.2c4.4-17.1,1.9-34.8-7.1-49.9
			c-8.9-15.2-23.3-25.9-40.3-30.3c-5.4-1.4-11-2.1-16.5-2.1c-30,0-56.3,20.3-63.8,49.5c-0.3,1.3-0.6,2.5-0.9,3.8
			c-1.9,4.8-2.4,9.9-1.4,14.9c15.4,31.5-1.8,51-20.1,71.6c-1.7,1.9-3.4,3.8-5.1,5.8c-59.6,68.7-60.5,154.4-56.4,236.2
			c0.5,9.6,6.6,14.3,13,19.2c1.6,1.2,3.2,2.5,4.8,3.8c16.2,13.9,25.5,31.8,26.1,50.4c0.6,17.4-6.5,34.4-19.9,47.7
			c-12.7,12.5-28.6,19.4-44.8,19.4c-18.1,0-35.4-8.3-48.7-23.4c-11.3-12.2-17.2-28.1-16.5-44.8c0.6-16.6,7.7-32.1,20-43.4
			c2.8-2.6,5.9-4.9,9.1-7c18.1-12.6,17.8-28.1,17.6-44.6c0-1.1,0-2.2,0-3.4c-0.1-10.3,0-19.1,0-26.8c0.2-23.3,0.3-34.9-5.2-40.4
			c-4.2-4.3-12.1-5.1-26-5.1c-3.5,0-7.3,0-11.7,0.1c-5.4,0.1-11.5,0.1-18.2,0.1c-3,0-6.2,0-9.5-0.1c-23.9-0.3-47.3-0.5-70.6-0.5
			c-19.3,0-36.7,0.2-52.9,0.5c-1,0-2,0-3,0c-11.9,0-19.2-2.2-23.6-7c-4.8-5.3-6.3-13.9-4.9-28c9.3-101.8,40.6-202.5,95.7-307.6
			c8.1-15.4,17.6-21.1,36.4-21.9c36.5-1.5,62.2-28.6,62.5-66c0-32.4-20.7-58.6-50.3-63.8c-4.9-0.9-9.8-1.3-14.5-1.3
			c-31,0-55.6,18.3-64.4,47.7c-5.5,19.1-1.8,37.5,11.6,57.8c0.4,0.6,0.8,1.2,1.2,1.8c5.4,8,11,16.2,5,27.1
			c-46.7,88.3-77.2,164.7-95.8,240.6c0,0.1-0.2,0.2-0.3,0.2c0,0-0.6,0-0.6,0c-0.1,0-0.3-0.1-0.3-0.2c-17.1-60.6-38.6-120.5-64-178.1
			c-6-13.3,2.4-20.1,10.5-26.7c2.5-2,5-4,7-6.2c43.1-46.5,53.7-95.6,32.3-149.9c-20.6-52.7-70.5-86.7-127.1-86.7
			c-17,0-33.8,3.2-49.7,9.4C336,144.4,302,194,301.8,250.3c-0.6,78.6,55.7,136.8,133.9,138.6c0.3,0,0.6,0,0.9,0
			c6.4,0,13.2-1.5,19.7-2.9c6.6-1.5,12.9-2.8,18.9-2.8c5.9,0,10.8,1.4,14.8,4.3c15.1,10.9,20.9,29.4,26.5,47.3
			c1.6,5.1,3.3,10.5,5.2,15.4c30.8,79.1,46.5,162.3,46.9,247.2c0,21.6,0,43.2,0.1,64.8c0.1,42.5,0.2,86.5-0.1,129.7
			c0,16.9,3.5,28.7,21.5,38.9c36.1,20.2,51.2,56.6,39.4,95.1C618.8,1060.4,587.4,1083.5,551.4,1083.5z"/>
		
			<linearGradient id="SVGID_00000090267766785960691240000004081176115492301754_" gradientUnits="userSpaceOnUse" x1="-216.4947" y1="1125.522" x2="416.058" y2="1125.522" gradientTransform="matrix(2.0339 0 0 -2.0339 376.604 2813.0457)">
			<stop  offset="0" style="stop-color:#1AE0FF"/>
			<stop  offset="0.48" style="stop-color:#FA10D6"/>
			<stop  offset="0.99" style="stop-color:#FF950E"/>
		</linearGradient>
		<path style="fill:url(#SVGID_00000090267766785960691240000004081176115492301754_);" d="M551.4,1083.2c-8.2,0-16.3-1.2-24.1-3.7
			c-26.2-8.1-46.5-28.7-54.1-55.1c-5.3-19.3-4.5-37.2,2.3-53.1c6.9-16.2,20-30,38.7-41.1c12.9-6.3,20.7-20,19.4-34.3
			c-0.4-55-0.8-120,0-185.3c0-21.2-7.2-29.1-26.4-29.1c-0.5,0-1.1,0-1.7,0c-20.7,0.5-42,0.7-64.9,0.7c-22.7,0-47-0.2-74-0.7
			c-10.4,0-17.3,2-21.5,6.3c-4.1,4.2-5.9,10.7-5.7,20.4c0.7,36.5,0.7,75.5,0,126.6c-0.4,13.2,5.6,26,16.1,34
			c13,11.6,20.5,26.4,21,41.7c0.5,13.9-4.8,27.3-14.8,37.7c-10,10.8-24.2,16.9-39,16.9c-13.5,0-26.4-5.1-36.3-14.3
			c-0.8-0.7-1.6-1.5-2.3-2.3c-10.6-10.6-16.1-23.5-16-37.2c0.2-15,7.4-30,20.3-42.2c0.7-0.6,1.3-1.2,2-1.8
			c7.6-7.1,14.8-13.7,14.4-25.7c-0.6-19.9-0.3-40.2,0-59.8c0.6-38,1.2-77.4-5.1-115.8c-9-55-31.4-100.8-66.6-136.1
			c-14.3-14.5-21.5-27.1-15.9-48.8c9.5-31.1-5.9-64-35.8-76.6c-9-4.3-18.5-6.5-28.4-6.5c-25.1,0-48.3,14.6-59.2,37.2
			c-9.8,20.4-8.5,44.1,3.6,63.3c12.2,20.4,32.3,32.2,55.3,32.2c7.1,0,14.5-1.1,21.9-3.3c4.9-1.4,9.1-2.1,13-2.1
			c9.1,0,16.3,3.6,25.1,12.5c32.2,32.2,55.1,72.7,66.1,116.9c2.5,9.9,2.1,16.8-1.3,21.1c-3,3.8-8.1,5.7-15.7,5.7c-0.4,0-0.8,0-1.3,0
			c-4.2-0.1-8.5-0.2-13.2-0.2c-11.2,0-22.5,0.3-33.6,0.6c-11,0.3-22.4,0.6-33.6,0.6c-26,0-45.9-1.7-64.5-5.6
			c-50.9-10.6-97-38-129.9-77.2c-32.8-39.2-50.4-87.8-49.7-137c0.8-50.5,19.3-99.2,52-137.1c33.3-38.6,78.4-64.1,130.6-73.9
			c22-4.2,30.1-12.5,33.5-34.5c11.6-75,46.3-139.1,100.1-185.3c50.8-43.6,115.6-67.6,182.4-67.6c66.8,0,131.5,23.5,187.3,67.9
			c8.7,8.1,20.1,12.5,32,12.5c4.2,0,8.5-0.6,12.5-1.7c18.9-4.4,37.9-6.6,56.5-6.6c54.1,0,105,19.1,143.4,53.8
			c39.5,35.7,64.1,85.1,71,142.7c1.9,15.6,5.9,20.6,16.5,20.6c2.6,0,5.8-0.3,10-1c12.8-2,25.8-3,38.5-3
			c56.3,0,109.5,19.7,149.7,55.5c40.6,36.1,65.4,86.5,69.8,141.9c4.8,60.4-14.8,117.8-55.2,161.8c-20.9,22.7-46.1,40.7-75.1,53.3
			c-30,13.1-62.4,19.8-96.4,19.9h-92.6c-9.4,0-16-2.3-19.6-6.9c-3.7-4.7-4.4-11.6-2.2-21.2c10.6-44.2,33.9-83.5,73.1-123.7
			c4.3-4.3,8.7-6.4,13.9-6.4c4.3,0,8.4,1.4,12.8,2.8c2.5,0.8,5.1,1.7,7.7,2.2c5,1.1,10.1,1.7,15.2,1.7c31.4,0,59.2-20.8,66.2-49.5
			c4.4-17.1,1.9-34.9-7.1-50.2c-9-15.2-23.4-26-40.5-30.5c-5.4-1.4-11-2.1-16.6-2.1c-30.2,0-56.5,20.4-64.1,49.7
			c-0.3,1.3-0.6,2.6-0.9,3.8c-1.9,4.8-2.4,10-1.4,15c15.3,31.4-1.8,50.8-20,71.4c-1.7,1.9-3.4,3.8-5.1,5.8
			c-59.7,68.8-60.6,154.5-56.5,236.4c0.5,9.8,6.6,14.4,13.1,19.4c1.6,1.2,3.2,2.5,4.8,3.8c16.1,13.8,25.4,31.6,26,50.2
			c0.6,17.4-6.4,34.2-19.8,47.5c-12.6,12.4-28.4,19.3-44.6,19.3c-18,0-35.2-8.3-48.5-23.3c-11.3-12.2-17.1-28-16.5-44.5
			c0.6-16.6,7.7-31.9,19.9-43.2c2.8-2.6,5.8-4.9,9-6.9c18.2-12.7,18-28.3,17.7-44.9c0-1.1,0-2.2,0-3.3c-0.1-10.3,0-19.1,0-26.8
			c0.2-23.4,0.3-35.1-5.3-40.7c-4.3-4.4-12.2-5.1-26.2-5.1c-3.5,0-7.3,0-11.7,0.1c-5.4,0.1-11.4,0.1-18.2,0.1c-3,0-6.2,0-9.5-0.1
			c-23.9-0.3-47.3-0.5-70.6-0.5c-19.3,0-36.7,0.2-52.9,0.5c-1,0-2,0-3,0c-11.8,0-19-2.1-23.4-6.9c-4.7-5.2-6.2-13.8-4.9-27.7
			c9.3-101.8,40.6-202.4,95.7-307.5c8-15.3,17.5-21,36.1-21.7c36.7-1.5,62.5-28.8,62.8-66.3c0-32.6-20.8-58.9-50.5-64.1
			c-4.9-0.9-9.8-1.3-14.6-1.3c-31.1,0-55.9,18.4-64.7,47.9c-5.5,19.2-1.8,37.6,11.6,58.1c0.4,0.6,0.8,1.2,1.2,1.8
			c5.3,7.9,10.9,16.1,5,26.8c-46.7,88.3-77.2,164.8-95.8,240.7l-0.6,0c-17.1-60.6-38.6-120.5-64-178.1c-5.9-13.1,2.4-19.9,10.5-26.4
			c2.5-2,5-4,7-6.2c43.2-46.6,53.8-95.8,32.4-150.2c-20.7-52.8-70.7-86.9-127.3-86.9c-17.1,0-33.8,3.2-49.9,9.5
			c-52.5,20.6-86.6,70.3-86.8,126.7c-0.6,78.7,55.8,137.1,134.2,138.9c0.3,0,0.6,0,1,0c6.4,0,13.2-1.5,19.8-2.9
			c6.6-1.4,12.8-2.8,18.8-2.8c5.9,0,10.6,1.4,14.6,4.2c15,10.8,20.8,29.3,26.4,47.1c1.6,5.2,3.3,10.5,5.2,15.5
			c30.7,79.1,46.5,162.3,46.9,247.1c0,21.6,0,43.2,0.1,64.8c0.1,42.5,0.2,86.5-0.1,129.7c0,17.1,3.5,28.9,21.6,39.1
			c36,20.1,51,56.4,39.2,94.8C618.5,1060.2,587.3,1083.2,551.4,1083.2z"/>
		
			<linearGradient id="SVGID_00000135690207055031301630000017661749042128009874_" gradientUnits="userSpaceOnUse" x1="-216.3432" y1="1125.5219" x2="415.9062" y2="1125.5219" gradientTransform="matrix(2.0339 0 0 -2.0339 376.604 2813.0457)">
			<stop  offset="0" style="stop-color:#1AE0FF"/>
			<stop  offset="0.48" style="stop-color:#FA10D6"/>
			<stop  offset="0.99" style="stop-color:#FF950E"/>
		</linearGradient>
		<path style="fill:url(#SVGID_00000135690207055031301630000017661749042128009874_);" d="M579.9,561.8
			c-17.2-60.8-38.6-120.3-64-178.2c-7.7-17,9-23.1,17.4-32.2c40.6-43.8,54.9-93.4,32.4-150.5c-27.6-70.5-107.1-105.2-177.6-77.6
			c-52.3,20.5-86.8,70.8-87,127c-0.6,78.7,57,137.5,134.5,139.2c18.5,0.4,39.5-12,54-1.5c19.3,14,23.3,40.5,31.5,62.4
			c30.6,78.8,46.5,162.5,46.9,247c0,64.8,0.4,129.7,0,194.5c0,18.2,4.4,29.6,21.8,39.4c37.1,20.7,50.4,57.6,39.1,94.4
			c-13.3,42.8-58.7,66.7-101.5,53.5c-26-8.1-46.3-28.7-53.9-54.9c-10.4-38.3,2.9-71.5,40.9-93.8c13.1-6.3,20.9-20.1,19.6-34.6
			c-0.5-61.8-0.7-123.5,0-185.3c0-20.9-6.6-29.9-28.4-29.4c-46.3,1-92.6,0.8-139,0c-19.6,0-27.9,6.9-27.5,27
			c0.9,42.2,0.6,84.4,0,126.6c-0.4,13.4,5.6,26.1,16.2,34.3c25.9,23.1,27.5,56.9,6.2,78.9c-20,21.4-53.5,22.6-74.9,2.6
			c-0.8-0.7-1.6-1.5-2.3-2.3c-22.5-22.4-21.1-54.9,4.3-79c8.5-8,16.9-14.6,16.4-27.8c-1.9-58.5,4.5-117.3-5.1-175.6
			c-8.6-52.4-29.3-98.8-66.7-136.3c-13.9-14-21.5-26.6-15.8-48.5c9.5-31.1-6.1-64.3-36-76.9c-32.8-15.8-72.2-1.9-87.9,30.9
			c-9.8,20.4-8.4,44.4,3.6,63.6c15.6,26.2,44.5,38.8,77.6,29c16.9-5,26.6-1,37.8,10.3c32.2,32.2,55,72.6,66,116.8
			c4.2,16.4,0.9,26.9-18,26.4c-48.2-1.2-96.8,5.4-144.7-4.5C10.7,655-65,564.3-63.4,462.9c1.7-104.1,76.1-190.8,182.4-210.8
			c20.9-4,30.2-11.5,33.8-34.8C188.6-13.4,440.2-112.3,622.1,32.6c12,11.1,29,15.2,44.8,10.9c135.4-31.2,253.9,51.8,270.5,189.7
			c2.4,20.2,8.5,22.8,26.9,19.9c132.3-20.5,247.4,66.6,257.6,194.1c10.3,128.7-91.3,234.1-226.3,234.7h-92.6
			c-19.5,0-25.8-9.6-21.5-27.7c11.7-48.5,38.4-88.1,73-123.5c11.6-11.8,22.4-3.8,34.1-1.2c36.7,8,73.5-13.9,81.8-48
			c9.2-35.6-12.2-71.8-47.8-81c-35.6-9.2-71.8,12.2-81,47.8c-0.3,1.3-0.6,2.6-0.9,3.9c-1.9,4.8-2.4,10.1-1.4,15.1
			c16.7,34.2-5.1,53.9-25,76.9c-59.5,68.6-60.8,152.1-56.6,236.6c0.6,12.4,10.2,16.7,18,23.4c32.2,27.6,34.6,69,6.2,97.2
			c-27.4,27-66.8,25.3-92.6-4c-23.2-25-21.7-64.1,3.4-87.3c2.8-2.6,5.8-4.9,9-6.9c19.6-13.6,18-30.3,17.8-48.5
			c-0.9-84.5,10.3-71.8-71.2-72.7c-41.1-0.5-82.3-0.9-123.5,0c-25.4,0.7-33.5-7-30.9-34.3c10-109.6,45-210.7,95.7-307.4
			c8.3-15.7,17.8-20.8,35.9-21.6c38-1.5,62.8-29.9,63.1-66.6c0-32.7-20.7-59.2-50.8-64.4c-37.6-6.6-69.4,12.4-79.6,46.8
			c-6.2,21.6,0,40.6,11.7,58.4c5.8,8.7,12.4,16.9,6.2,28.2C635.2,397.7,600.9,476.5,579.9,561.8L579.9,561.8z"/>
	</g>
</g>
<g>
	<g>
		<path class="st4" d="M1559.7,697c-21.3,0-41.8-4.4-61.6-13.1c-19.8-8.7-36.3-20.7-49.5-35.8c-11.5-13.6-19.9-26.5-25.2-38.6
			c-5.3-12.1-8.5-24-9.6-35.7c-1.1-11.7-1.7-23.6-1.7-35.8V374.9c1.2-35.9,12.9-66.5,35.1-91.7c22.2-25.2,49.6-40.9,82.4-47.4
			c10.5-1.7,20.6-2.6,30.4-2.6c22.7,0,43.5,4.3,62.4,12.8c18.9,8.6,35.2,20.3,48.7,35.1c13.6,14.9,23.6,32,30.1,51.4
			c4.3,13.4,6.4,30.6,6.4,51.6c0,11.3-4,20.4-12,27.3c-8,6.9-17.9,10.5-29.6,10.9c-10.3,0-19.3-3.9-26.9-11.8
			c-7.6-7.9-11.4-16.7-11.4-26.4V379c0-7-0.7-13.9-2.1-20.7c-1.2-6-4.4-12.7-9.6-20.3c-1.6-2.3-3.3-4.5-5.3-6.5
			c-6.6-6.8-13.8-12-21.4-15.6c-8.8-4.2-19-6.3-30.5-6.3c-27.3,1.1-47.4,13.6-60.2,37.4c-0.8,1.5-1.5,3-2.1,4.6v0
			c-2,4.9-3.2,9.9-3.6,15.2c-0.6,6.2-0.9,20.4-0.9,42.6l0.3,141.4c0,7.8,0.8,15,2.3,21.6c1.3,5.9,4.6,12.5,9.7,19.9
			c1.4,2.1,3,4,4.8,5.8c6.7,7.1,14,12.4,21.7,16.1c8.8,4.2,19,6.3,30.5,6.3c14.8-0.6,27.8-4.9,39.2-12.8c8-5.4,14.7-13.1,20.3-23.2
			c1.2-2.3,2.3-4.6,3.1-7.1c1.5-4.5,2.5-8.3,3-11.5c0.6-4,0.9-8.6,0.9-13.8v-7.6c0-10.9,4-19.9,12-27.1c8-7.2,17.9-11,29.6-11.4
			c10.3,0,19.3,3.9,26.9,11.8c7.6,7.9,11.4,16.8,11.4,26.7v12.2c0,1,0,2-0.1,3c-3.2,48.8-25.6,87.2-67.4,115c-1,0.7-2,1.3-3,1.9
			C1612.8,690.1,1587,697,1559.7,697z"/>
		<path class="st4" d="M1960.5,694h-172.8c-10.3,0-19.3-3.9-26.9-11.8c-7.6-7.9-11.4-16.8-11.4-26.7v-378c0-9.9,4.1-18.5,12.3-25.8
			s17.4-10.9,27.5-10.9h171.3c11.3,0,20.7,3.8,28.2,11.4c7.5,7.6,11.4,17,11.8,28.3c0,9.9-4.1,18.6-12.3,25.9
			c-8.2,7.4-17.5,11.1-27.8,11.1h-82.2c-27,0-49,21-49,47v17.7c0,25.9,21.9,47,49,47h59.8c11.5,0,21,3.8,28.4,11.4
			c7.4,7.6,11.3,17,11.7,28.3c0,9.9-4.1,18.6-12.3,25.9c-8.2,7.4-17.5,11.1-27.8,11.1h-59.8c-27,0-49,21-49,47v17.7
			c0,25.9,21.9,47,49,47h82.2c11.3,0,20.7,3.8,28.2,11.4c7.5,7.6,11.4,17,11.8,28.3c0,10.1-4.1,18.8-12.3,26.1
			S1970.8,694,1960.5,694z"/>
		<path class="st4" d="M2249.6,694h-180.1c-10.5,0-19.6-3.9-27.2-11.8c-7.6-7.9-11.4-16.8-11.4-26.7V279c0-11.3,4-20.4,12-27.3
			c8-6.9,18-10.5,29.9-10.9c10.3,0,19.2,3.9,26.7,11.8c7.5,7.9,11.2,16.7,11.2,26.4v291.4c0,25.9,21.9,47,49,47h89.8
			c11.7,0,21.2,3.8,28.4,11.5c7.2,7.7,11,17.2,11.4,28.4c0,10.1-4.1,18.8-12.3,25.9C2268.9,690.4,2259.7,694,2249.6,694z"/>
		<path class="st4" d="M2527.8,694h-180.1c-10.5,0-19.6-3.9-27.2-11.8c-7.6-7.9-11.4-16.8-11.4-26.7V279c0-11.3,4-20.4,12-27.3
			c8-6.9,18-10.5,29.9-10.9c10.3,0,19.2,3.9,26.7,11.8c7.5,7.9,11.2,16.7,11.2,26.4v291.4c0,25.9,21.9,47,49,47h89.8
			c11.7,0,21.2,3.8,28.4,11.5c7.2,7.7,11,17.2,11.4,28.4c0,10.1-4.1,18.8-12.3,25.9C2547,690.4,2537.9,694,2527.8,694z"/>
	</g>
	<g>
		<path class="st5" d="M1488.5,1039.7c-12.6,0-24.7-2.3-36.4-6.9c-11.7-4.6-21.5-10.9-29.3-18.8c-6.8-7.1-11.8-13.9-14.9-20.3
			c-3.1-6.4-5-12.6-5.7-18.7c-0.7-6.1-1-12.4-1-18.8v-85.5c0.7-18.9,7.6-34.9,20.7-48.1c13.1-13.2,29.3-21.5,48.7-24.8
			c6.2-0.9,12.2-1.4,17.9-1.4c13.4,0,25.7,2.2,36.9,6.7c11.2,4.5,20.8,10.6,28.8,18.4c8,7.8,13.9,16.8,17.8,27
			c2.5,7,3.8,16.1,3.8,27.1c0,5.9-2.4,10.7-7.1,14.3c-4.7,3.6-10.6,5.5-17.5,5.7c-6.1,0-11.4-2.1-15.9-6.2
			c-4.5-4.1-6.7-8.7-6.7-13.8v-2.8c0-3.7-0.4-7.3-1.3-10.9c-0.8-3.4-3-7.3-6.5-11.8c-0.3-0.4-0.7-0.8-1-1.1
			c-4.3-4.1-8.9-7.2-13.9-9.3c-5.2-2.2-11.2-3.3-18-3.3c-16.4,0.6-28.4,7.4-35.9,20.3c-0.2,0.4-0.4,0.7-0.6,1.1l-0.3,0.7
			c-1.2,2.5-1.9,5.2-2.2,8c-0.4,3.3-0.5,10.7-0.5,22.3l0.2,74.2c0,4.1,0.4,7.9,1.3,11.3c0.9,3.3,3,7.1,6.5,11.4
			c0.3,0.3,0.6,0.7,0.9,1c4.3,4.2,9,7.4,14,9.5c5.2,2.2,11.2,3.3,18,3.3c8.7-0.3,16.5-2.5,23.2-6.7c5.1-3.1,9.3-7.5,12.7-13.4
			c0.2-0.4,0.5-0.9,0.6-1.3c1.2-2.9,1.9-5.3,2.2-7.2c0.4-2.1,0.5-4.5,0.5-7.3v-4c0-5.7,2.4-10.4,7.1-14.2c4.7-3.8,10.6-5.8,17.5-6
			c6.1,0,11.4,2.1,15.9,6.2s6.7,8.8,6.7,14v6.8c0,0.2,0,0.5,0,0.7c-1.8,26-15.2,46.3-40.3,61c-0.3,0.2-0.5,0.3-0.8,0.4
			C1520.2,1036,1504.8,1039.7,1488.5,1039.7z"/>
		<path class="st5" d="M1729.9,1039.7h-106.4c-6.2,0-11.6-2.1-16.1-6.2c-4.5-4.1-6.7-8.8-6.7-14V821.9c0-5.9,2.4-10.7,7.1-14.3
			c4.7-3.6,10.6-5.5,17.7-5.7c6.1,0,11.4,2.1,15.8,6.2c4.4,4.1,6.6,8.7,6.6,13.8v166.2c0,6.2,5.9,11.3,13.3,11.3h68.7
			c6.9,0,12.5,2,16.8,6c4.2,4,6.5,9,6.7,14.9c0,5.3-2.4,9.8-7.3,13.6C1741.3,1037.8,1735.9,1039.7,1729.9,1039.7z"/>
		<path class="st5" d="M1832.4,1039.7c-16.6,0-31.4-3.4-44.4-10.2c-13-6.8-23.2-15.6-30.5-26.6c-7.4-11-11.2-22.9-11.6-35.7v-94
			c0-14.5,4-27.3,12.1-38.4c8.1-11.1,18.6-19.8,31.6-26.1c13-6.3,26.9-9.5,41.7-9.5c3.2,0,6.5,0.2,9.9,0.5
			c16,1.9,29.3,6.1,39.8,12.4c10.5,6.3,18.7,13.6,24.5,21.7c5.8,8.2,9.5,16.1,11,23.7c1.3,7.5,2,15.2,2,22.9l-0.2,15.4l0.2,52
			c0,8.6-0.1,15.2-0.3,19.9c-0.2,4.7-0.5,8.5-1.1,11.5c-0.5,3-1.3,5.9-2.4,8.7c-6,15.5-16.4,27.9-31.2,37.3
			C1868.7,1034.5,1851.6,1039.4,1832.4,1039.7z M1831.8,999.4c10.3,0,19.3-3,26.9-8.9c7.7-5.9,11.7-14.1,12.2-24.5
			c0.1-11.1,0.2-26.5,0.2-46.2c0-29.1,0-46.1-0.1-50.9c0-0.8-0.1-1.6-0.3-2.3c-2.4-8.5-6.8-15.1-13.4-19.8
			c-6.9-4.8-14.9-7.4-24.1-7.7c-10.3,0-19.4,2.9-27.4,8.7c-8,5.8-12.2,14.4-12.8,25.8l0.2,92c0.5,10.6,4.5,18.9,12.2,24.8
			C1812.9,996.5,1821.8,999.4,1831.8,999.4z"/>
		<path class="st5" d="M2028.4,1039.7c-20.7,0-39.4-6-56-18c-16.5-11.9-26.4-28.4-29.5-49.5c0-0.3-0.1-0.6-0.1-0.9l0,0
			c0-0.3,0-0.5-0.1-0.8c-0.2-1.5-0.3-5-0.3-10.5v-17.9c0.1-17.4,0.2-58.5,0.2-123.2c0-5.9,2.4-10.7,7.1-14.3
			c4.7-3.6,10.6-5.5,17.5-5.7c6.1,0,11.4,2.1,15.9,6.2s6.7,8.7,6.7,13.8v149.2c0,0.2,0,0.4,0,0.7l0.1,1.7c0,0.4,0.1,0.8,0.2,1.2
			c2.1,11,9.6,19.3,22.3,25c0.6,0.3,1.2,0.5,1.8,0.7c5,1.4,9.9,2.2,14.5,2.2c7.6,0,15.1-2.1,22.6-6.3c0.5-0.3,1-0.6,1.5-1
			c6.2-4.7,10.1-9.4,11.9-14.1c1.8-4.9,2.7-10.1,2.7-15.7c-0.1-7.2-0.2-55-0.2-143.4c0-5.9,2.4-10.7,7.1-14.3
			c4.7-3.6,10.6-5.5,17.7-5.7c6.1,0,11.4,2.1,15.8,6.2c4.4,4.1,6.6,8.7,6.6,13.8v146.6c0,13-3.8,25.4-11.3,37.1
			c-7.5,11.7-18.5,21-32.8,27.9C2056.4,1036.6,2042.5,1039.7,2028.4,1039.7z"/>
		<path class="st5" d="M2221,1039.7h-40.7c-6.3,0-11.8-2-16.5-6c-4.7-4-7-8.7-7-14.2V821.9c0-5.4,2.3-10.1,7-14.1
			c4.7-4,10.2-6,16.5-6h25.8c10.3,0,18.8,0.2,25.6,0.6c6.8,0.4,13.3,1.4,19.5,2.9c18.7,4.9,34.7,13.3,48.2,25.3
			c13.5,12,22.3,26.1,26.7,42.4c1.1,4.2,1.8,9,2.2,14.4c0.4,5.5,0.5,15,0.5,28.5v31.5c-0.4,17.7-5.4,33.5-15.3,47.2
			c-9.8,13.8-22.8,24.6-38.9,32.5C2258.3,1035.2,2240.5,1039.4,2221,1039.7z M2225.3,999.4l2.9-0.2c0.6,0,1.1-0.1,1.7-0.2
			c28.5-5.2,45.6-19.6,51.1-43.3c0.1-0.5,0.2-1,0.2-1.5c0.2-2.6,0.3-7.1,0.3-13.5v-30.3l0.2-11.3c0-5.1-0.5-10.2-1.4-15.4
			c-1-5.2-3.1-10.4-6.6-15.6c-3.3-5.1-8.4-10.1-15.1-15c-0.4-0.3-0.8-0.6-1.2-0.8c-7.5-4.4-14.4-7.2-20.5-8.4
			c-6.3-1.3-12.9-1.9-19.7-1.9l0,0c-7.3,0.1-13.1,5.1-13.1,11.3v134.8c0,6.2,5.9,11.3,13.3,11.3h7
			C2224.6,999.4,2224.9,999.4,2225.3,999.4z"/>
		<path class="st6" d="M2341.8,1054.2c-4.2,0-8.3-0.9-12.3-2.7c-4.1-1.8-7.3-4.5-9.9-8.2l-22.2-35.3c-3.7-5.8-6.8-10.9-9.6-15.3
			c-5.3-8.4-19.5-8.4-24.8,0l-32.1,50.9c-2.3,3.5-5.4,6-9.2,7.7c-3.9,1.7-7.9,2.5-12.1,2.5c-4.4,0-8.7-0.9-12.8-2.8
			c-4.1-1.8-7.2-4.4-9.2-7.7c-2-3.3-3-6.8-3-10.4c0-3.8,1.1-7.4,3.2-10.8l55.7-88.2c2.2-3.5,2.2-7.8,0-11.3l-55.7-88.2
			c-2.2-3.5-3.2-7-3.2-10.5c0-5.6,2.3-10.6,6.9-15c4.6-4.4,10.4-6.6,17.2-6.6c4.6,0,8.9,0.9,12.9,2.8c4.1,1.9,7.2,4.5,9.3,7.8
			l32.1,50.8c5.3,8.4,19.5,8.4,24.8,0l32.1-50.8c2.3-3.5,5.3-6,9.2-7.8c3.9-1.7,7.9-2.6,12.2-2.6c4.4,0,8.7,0.9,12.7,2.8
			c4.1,1.8,7.1,4.4,9.1,7.7c2,3.3,3,6.8,3,10.6c0,3.7-1,7.2-3,10.7l-55.7,88.2c-2.2,3.5-2.2,7.8,0,11.3l55.7,88.2
			c2.2,3.6,3.2,7.1,3.2,10.5c0,5.6-2.3,10.6-7,15C2354.6,1052,2348.8,1054.2,2341.8,1054.2z"/>
		<path class="st7" d="M2459.8,1042.5h-40.7c-6.3,0-11.8-2-16.5-6s-7-8.7-7-14.2V824.8c0-5.4,2.3-10.1,7-14.1c4.7-4,10.2-6,16.5-6
			h25.8c10.3,0,18.8,0.2,25.6,0.6c6.8,0.4,13.3,1.4,19.5,2.9c18.7,4.9,34.7,13.3,48.2,25.3c13.5,12,22.3,26.1,26.7,42.4
			c1.1,4.2,1.8,9,2.2,14.4c0.4,5.5,0.5,15,0.5,28.5v31.5c-0.4,17.7-5.4,33.5-15.3,47.2c-9.8,13.8-22.8,24.6-38.9,32.5
			C2497.2,1038.1,2479.3,1042.2,2459.8,1042.5z M2464.2,1002.2l2.9-0.2c0.6,0,1.1-0.1,1.7-0.2c28.5-5.2,45.6-19.6,51.1-43.3
			c0.1-0.5,0.2-1,0.2-1.5c0.2-2.6,0.3-7.1,0.3-13.5v-30.3l0.2-11.3c0-5.1-0.5-10.2-1.4-15.4c-1-5.2-3.1-10.4-6.6-15.6
			c-3.3-5.1-8.4-10.1-15.1-15c-0.4-0.3-0.8-0.6-1.2-0.8c-7.5-4.4-14.4-7.2-20.5-8.4c-6.3-1.3-12.9-1.9-19.7-1.9l0,0
			c-7.3,0.1-13.1,5.1-13.1,11.3V991c0,6.2,5.9,11.3,13.3,11.3h7C2463.4,1002.3,2463.8,1002.3,2464.2,1002.2z"/>
		<g>
			<circle class="st8" cx="2460.5" cy="909.1" r="125.5"/>
			<g>
				
					<linearGradient id="SVGID_00000142146081014848260750000003934804935819179956_" gradientUnits="userSpaceOnUse" x1="2316.9397" y1="918.0321" x2="2587.4297" y2="918.0321">
					<stop  offset="0" style="stop-color:#580AC9"/>
					<stop  offset="0.48" style="stop-color:#CB3A1D"/>
					<stop  offset="0.99" style="stop-color:#CBA51D"/>
				</linearGradient>
				<path style="display:none;fill:url(#SVGID_00000142146081014848260750000003934804935819179956_);" d="M2346.5,1058.4
					c-1.1,0-1.9,0-2.8,0c-0.9,0-1.8-0.1-3.3-0.1l-0.9,0c0,0-2.1,0-2.6,0c-3.2,0-6.9-0.2-11.1-2.6c-4.1-2.4-6.8-5.6-8.1-9.7
					c-1.7-5.6-0.4-11.2,4-16.8l1.5-1.9c2.7-3.5,6.1-7.8,10.3-12.9c0.4-0.6,2.5-3.3,4.6-6c2.8-3.6,4.7-6.1,6.6-7.8
					c2.2-2.6,9.6-11.9,15.5-19.6l54.8-71.2l-54.8-71.3c-4-5.2-6-10.8-6-16.7c0-6.1,2.1-15,12.1-22.8c7-5.5,15.6-8.2,25.5-8.2
					c6.2,0,12.2,1.1,17.8,3.2c6.3,2.4,11.4,6,15.1,10.7c0,0,0,0,32.8,42.7c0.3,0.2,1.3,0.5,2.7,0.5s2.4-0.3,2.7-0.5l32.6-42.3
					c8.2-11.7,18.2-20.8,26.2-23.9c4-1.5,8.2-2.4,8.7-2.5c1.7-0.3,4.4-0.9,8.1-1.1c0.4,0,0.7,0,1.1,0c1.1,0,2.3,0.1,7.7,0.4
					c2.7,0.2,4,0.3,5.5,0.4c4,0.3,6,0.5,8.1,0.7c5.6,0.6,9,1,12.5,2.5c10.6,4.5,13.5,11.3,14,16.2c0.6,5.2-1.2,10.1-5.2,14.6
					c-4.2,4.7-12.7,15.2-21.8,26.4l-54.7,71.1c54.9,71.4,55,71.4,55,71.5c3.9,5.2,5.8,10.8,5.8,16.5c0,6.1-2.1,15.1-12.3,22.8
					c-7.1,5.4-15.7,8.2-25.7,8.2c-5.8,0-11.5-1-17-3c-6.3-2.3-11.5-5.9-15.6-10.7c-0.1-0.1-0.2-0.3-0.4-0.4l-22.8-29.7
					c-3.7-4.8-6.9-9-9.7-12.6c-0.4-0.2-1.3-0.5-2.7-0.5c-1.4,0-2.4,0.3-2.7,0.5c-32.9,42.7-32.9,42.8-33,42.8
					c-9.2,11.5-24.6,29.9-29.7,33.5c-2.8,2-5.4,3.4-5.9,3.6c-0.8,0.4-1.5,0.8-2.1,1c-1.8,0.9-3.6,1.6-5.5,2.2
					c-3.7,1.1-6.6,1.3-8.4,1.4l-0.2,0c-2,0.1-2.7,0.2-3.5,0.3c-1.4,0.2-3,0.4-7.4,0.6c-3.9,0.2-7.2,0.4-11.9,0.6
					C2348.5,1058.4,2347.4,1058.4,2346.5,1058.4z"/>
				
					<linearGradient id="SVGID_00000130644941618621302970000000856411579523368369_" gradientUnits="userSpaceOnUse" x1="2319.7861" y1="918.0321" x2="2584.5938" y2="918.0321">
					<stop  offset="0" style="stop-color:#3C1CFD"/>
					<stop  offset="0.48" style="stop-color:#CB1D23"/>
					<stop  offset="0.99" style="stop-color:#FFB325"/>
				</linearGradient>
				<path style="fill:url(#SVGID_00000130644941618621302970000000856411579523368369_);" d="M2346.5,1055.6c-1,0-1.8,0-2.7,0
					c-0.9,0-1.9-0.1-3.4-0.1l-0.9,0c0,0-2.1,0-2.6,0c-2.9,0-6.1-0.2-9.7-2.2c-3.5-2-5.8-4.7-6.8-8.1c-1.4-4.6-0.2-9.4,3.5-14.2
					l1.4-1.8c2.7-3.5,6.2-7.8,10.3-13c0.5-0.6,2.5-3.3,4.6-6c2.8-3.6,4.6-6,6.4-7.5c2-2.3,9.3-11.6,15.7-19.8l56.2-73l-56.2-73
					c-3.6-4.7-5.4-9.7-5.4-15c0-5.5,1.9-13.5,11-20.5c6.5-5.1,14.5-7.6,23.8-7.6c5.9,0,11.5,1,16.8,3c5.9,2.2,10.5,5.5,13.9,9.8
					c0,0,33,42.9,33,42.9c0.3,0.4,2,1.4,4.8,1.4c2.8,0,4.5-1,4.8-1.4l32.8-42.6c7.9-11.3,17.4-20,24.9-22.9c3.8-1.5,7.8-2.3,8.3-2.4
					c1.6-0.3,4.2-0.9,7.7-1c0.3,0,0.6,0,1,0c1,0,2.3,0.1,7.5,0.4c2.7,0.2,4,0.3,5.5,0.4c4,0.3,6,0.5,8,0.7c5.5,0.6,8.6,0.9,11.7,2.3
					c9.3,4,11.8,9.8,12.3,13.9c0.5,4.4-1,8.5-4.5,12.4c-4.3,4.8-12.8,15.2-21.9,26.5l-56.1,72.9c0,0,56.3,73.1,56.3,73.2
					c3.5,4.7,5.3,9.7,5.3,14.8c0,5.5-1.9,13.5-11.1,20.6c-6.6,5-14.7,7.6-24,7.6c-5.4,0-10.8-1-16.1-2.8c-5.8-2.1-10.7-5.4-14.4-9.9
					c-0.1-0.1-0.2-0.2-0.3-0.3l-22.8-29.7c-3.8-4.9-7-9.2-9.9-12.9c-0.3-0.4-2-1.4-4.8-1.4c-2.8,0-4.5,1-4.8,1.4
					c0,0-33.1,43-33.1,43c-10.9,13.7-24.9,30-29.1,33c-2.7,1.9-5.3,3.3-5.6,3.4c-0.8,0.4-1.5,0.7-2,1c-1.6,0.8-3.4,1.5-5.1,2
					c-3.3,1-6,1.1-7.7,1.2l-0.2,0c-2.1,0.1-2.8,0.2-3.7,0.3c-1.3,0.2-2.9,0.3-7.3,0.6c-3.8,0.2-7.2,0.4-11.8,0.6
					C2348.4,1055.5,2347.4,1055.6,2346.5,1055.6z"/>
				
					<linearGradient id="SVGID_00000158013447909710730720000004118119024254711179_" gradientUnits="userSpaceOnUse" x1="2326.957" y1="918.0321" x2="2577.4236" y2="918.0321">
					<stop  offset="0" style="stop-color:#580AC9"/>
					<stop  offset="0.48" style="stop-color:#CB3A1D"/>
					<stop  offset="0.99" style="stop-color:#CBA51D"/>
				</linearGradient>
				<path style="fill:url(#SVGID_00000158013447909710730720000004118119024254711179_);" d="M2346.5,1048.4c-1,0-1.7,0-2.5,0
					c-0.9,0-2-0.1-3.6-0.1c0,0-3,0-3.4,0c-2.2,0-4.1-0.1-6.1-1.3c-0.8-0.4-2.8-1.6-3.5-4c-1-3.4,1.3-6.4,2.3-7.7l1.4-1.8
					c2.8-3.5,6.2-7.8,10.4-13c6.7-8.9,9-11.8,10.3-12.8c1.6-1.7,9.5-11.7,16.4-20.6l57.2-74.3c1.5-2,1.5-4.1,0-6.1l-57.2-74.3
					c-2.6-3.4-3.9-7-3.9-10.6c0-5.6,2.8-10.6,8.2-14.9c5.2-4.1,11.8-6.1,19.4-6.1c5,0,9.8,0.9,14.3,2.6c4.6,1.8,8.3,4.3,10.8,7.5
					l33,42.8c2,2.6,6,4.2,10.5,4.2s8.5-1.6,10.5-4.2l32.9-42.7c8-11.4,16.6-18.5,21.7-20.4c3.3-1.3,7-2,7.1-2.1
					c1.5-0.3,3.6-0.8,6.5-0.9c0.2,0,0.4,0,0.7,0c0.8,0,2,0.1,7,0.4c2.6,0.2,4,0.3,5.4,0.4c3.9,0.3,5.9,0.4,7.7,0.6
					c5,0.5,7.5,0.8,9.7,1.7c4.9,2.1,7.6,4.8,8,8.1c0.4,3.4-1.9,5.9-2.7,6.8c-4,4.4-11.2,13.2-22.2,26.8l-57.1,74.2
					c-1.5,2-1.5,4.1,0,6.1l57.2,74.3c2.6,3.5,3.9,7.1,3.9,10.6c0,5.6-2.8,10.6-8.3,14.9c-5.3,4.1-11.9,6.1-19.7,6.1
					c-4.6,0-9.2-0.8-13.6-2.4c-4.6-1.7-8.4-4.3-11.4-7.7l-22.9-29.8c-3.8-4.9-7-9.2-9.9-12.9c-2-2.6-6-4.2-10.5-4.2
					c-4.5,0-8.5,1.6-10.5,4.2l-33,42.9c-13,16.3-25,29.7-27.7,31.7c-2.3,1.6-4.6,2.8-4.7,2.9c-0.7,0.4-1.3,0.7-1.8,0.9
					c-1.3,0.7-2.7,1.2-4.1,1.6c-2.5,0.8-4.5,0.9-6.1,1l-0.2,0c-2.3,0.1-3.2,0.2-4.2,0.4c-1.2,0.1-2.7,0.3-6.9,0.6
					c-3.8,0.2-7,0.4-11.6,0.6C2348.3,1048.4,2347.3,1048.4,2346.5,1048.4z"/>
				
					<linearGradient id="SVGID_00000001630748334103088860000004124219631514807428_" gradientUnits="userSpaceOnUse" x1="2329.7954" y1="918.032" x2="2574.5889" y2="918.032">
					<stop  offset="0" style="stop-color:#3C1CFD"/>
					<stop  offset="0.48" style="stop-color:#CB1D23"/>
					<stop  offset="0.99" style="stop-color:#FFB325"/>
				</linearGradient>
				<path style="fill:url(#SVGID_00000001630748334103088860000004124219631514807428_);" d="M2528.4,1015.9
					c-4.3,0-8.5-0.7-12.7-2.2c-4.2-1.5-7.5-3.8-10.1-6.9l-22.8-29.7c-3.8-4.9-7-9.2-9.9-12.9c-5.4-7.1-20-7.1-25.4,0l-33,42.9
					c-14,17.6-25,29.6-27.1,31.1c-2.1,1.5-4.3,2.7-4.3,2.7c-0.7,0.4-1.3,0.6-1.7,0.8c-0.8,0.4-2.1,1-3.6,1.5
					c-2.3,0.7-4.1,0.8-5.7,0.9c-5.2,0.3-3.4,0.5-11,0.9c-3.9,0.2-7.1,0.4-11.5,0.6c-5,0.2-5-0.1-10.2,0c-3.9,0-5.4,0.2-7.2-0.9
					c-0.7-0.4-1.8-1.1-2.2-2.3c-0.6-2,1-4.1,1.9-5.1c2.9-3.6,6.8-8.7,11.8-14.8c0,0,9.1-12.1,9.7-12.2c0.6,0,17-21.2,17-21.2
					l57.2-74.3c2.3-3,2.3-6.6,0-9.6l-57.2-74.3c-2.2-2.9-3.3-5.9-3.3-8.9c0-4.7,2.4-8.9,7.1-12.6c4.7-3.7,10.6-5.5,17.7-5.5
					c4.7,0,9.1,0.8,13.3,2.4c4.2,1.6,7.3,3.8,9.6,6.6l32.9,42.8c5.4,7.1,20,7.1,25.4,0l32.9-42.8c7.7-11,15.9-17.7,20.4-19.5
					c3.2-1.2,6.7-1.9,6.7-1.9c1.5-0.3,3.5-0.7,6.1-0.8c0.8,0,1.4,0,7.3,0.4c2.6,0.2,3.9,0.3,5.4,0.4c3.9,0.3,5.8,0.4,7.6,0.6
					c4.7,0.5,7.1,0.8,8.9,1.5c1.2,0.5,5.9,2.5,6.3,5.8c0.2,2.1-1.3,3.9-2,4.6c-4.2,4.7-11.9,14.1-22.3,26.9l-57.2,74.3
					c-2.3,3-2.3,6.6,0,9.6l57.2,74.3c2.2,3,3.3,6,3.3,8.9c0,4.7-2.4,8.9-7.2,12.6C2541.6,1014.1,2535.6,1015.9,2528.4,1015.9z"/>
			</g>
		</g>
	</g>
</g>
</svg>
